<?xml version="1.0" standalone="no"?>
<!DOCTYPE svg PUBLIC "-//W3C//DTD SVG 20010904//EN"
 "http://www.w3.org/TR/2001/REC-SVG-20010904/DTD/svg10.dtd">
<svg version="1.0" xmlns="http://www.w3.org/2000/svg"
 width="512.000000pt" height="512.000000pt" viewBox="0 0 512.000000 512.000000"
 preserveAspectRatio="xMidYMid meet">
<metadata>
Created by potrace 1.16, written by Peter Selinger 2001-2019
</metadata>
<g transform="translate(0.000000,512.000000) scale(0.100000,-0.100000)"
fill="#000000" stroke="none">
<path d="M2270 5100 c-411 -70 -738 -238 -1025 -525 -334 -333 -514 -746 -540
-1235 -20 -369 100 -801 374 -1344 235 -465 535 -925 942 -1446 214 -274 404
-498 448 -527 47 -32 135 -32 182 0 68 45 487 563 724 892 535 746 894 1452
999 1968 37 181 49 314 41 457 -26 489 -206 902 -540 1235 -292 293 -633 464
-1051 529 -140 22 -415 20 -554 -4z m545 -944 c200 -60 361 -172 485 -338 210
-280 244 -638 90 -954 -92 -189 -238 -336 -425 -429 -122 -61 -223 -86 -370
-92 -95 -4 -140 -1 -215 15 -532 110 -861 651 -709 1166 98 331 361 572 710
651 105 24 322 14 434 -19z"/>
</g>
</svg>
