<?xml version="1.0" standalone="no"?>
<!DOCTYPE svg PUBLIC "-//W3C//DTD SVG 20010904//EN"
 "http://www.w3.org/TR/2001/REC-SVG-20010904/DTD/svg10.dtd">
<svg version="1.0" xmlns="http://www.w3.org/2000/svg"
 width="512.000000pt" height="512.000000pt" viewBox="0 0 512.000000 512.000000"
 preserveAspectRatio="xMidYMid meet">

<g transform="translate(0.000000,512.000000) scale(0.100000,-0.100000)"
fill="#000000" stroke="none">
<path d="M2400 3934 c-221 -40 -327 -72 -463 -140 -187 -94 -195 -101 -1026
-928 -491 -489 -798 -803 -822 -839 -61 -93 -84 -174 -84 -297 0 -123 23 -203
84 -297 155 -240 457 -320 721 -191 59 29 137 103 825 789 838 835 799 802
925 802 126 0 87 33 925 -802 688 -686 766 -760 825 -789 264 -129 566 -49
721 191 61 94 84 174 84 297 0 123 -23 204 -84 297 -24 36 -332 350 -822 839
-832 829 -837 833 -1027 928 -193 96 -360 136 -592 141 -91 2 -176 1 -190 -1z"/>
</g>
</svg>
